<?xml version="1.0" encoding="UTF-8" standalone="no"?>
<!-- Created with Inkscape (http://www.inkscape.org/) -->

<svg
   xmlns:dc="http://purl.org/dc/elements/1.1/"
   xmlns:cc="http://creativecommons.org/ns#"
   xmlns:rdf="http://www.w3.org/1999/02/22-rdf-syntax-ns#"
   xmlns:svg="http://www.w3.org/2000/svg"
   xmlns="http://www.w3.org/2000/svg"
   xmlns:sodipodi="http://sodipodi.sourceforge.net/DTD/sodipodi-0.dtd"
   xmlns:inkscape="http://www.inkscape.org/namespaces/inkscape"
   width="12.076782mm"
   height="4.5423498mm"
   viewBox="0 0 12.076782 4.5423498"
   version="1.1"
   id="svg8"
   inkscape:version="0.92.2 (5c3e80d, 2017-08-06)"
   sodipodi:docname="phone.svg">
  <defs
     id="defs2" />
  <sodipodi:namedview
     id="base"
     pagecolor="#ffffff"
     bordercolor="#666666"
     borderopacity="1.0"
     inkscape:pageopacity="0.0"
     inkscape:pageshadow="2"
     inkscape:zoom="5.12"
     inkscape:cx="32.965564"
     inkscape:cy="-49.373581"
     inkscape:document-units="mm"
     inkscape:current-layer="layer1"
     showgrid="false"
     fit-margin-top="0"
     fit-margin-left="0"
     fit-margin-right="0"
     fit-margin-bottom="0"
     inkscape:window-width="3000"
     inkscape:window-height="1875"
     inkscape:window-x="-13"
     inkscape:window-y="-13"
     inkscape:window-maximized="1" />
  <metadata
     id="metadata5">
    <rdf:RDF>
      <cc:Work
         rdf:about="">
        <dc:format>image/svg+xml</dc:format>
        <dc:type
           rdf:resource="http://purl.org/dc/dcmitype/StillImage" />
        <dc:title></dc:title>
      </cc:Work>
    </rdf:RDF>
  </metadata>
  <g
     inkscape:label="Layer 1"
     inkscape:groupmode="layer"
     id="layer1"
     transform="translate(-51.849179,-130.69122)">
    <g
       aria-label=""
       style="font-style:normal;font-weight:normal;font-size:10.58333302px;line-height:1.25;font-family:sans-serif;letter-spacing:0px;word-spacing:0px;fill:#ff0000;fill-opacity:1;stroke:none;stroke-width:0.26458332"
       id="text3701">
      <path
         d="m 52.345269,135.23357 c -0.07235,0 -0.139526,-0.0138 -0.201538,-0.0413 -0.05857,-0.031 -0.110243,-0.0723 -0.155029,-0.12402 -0.04134,-0.0517 -0.07579,-0.11196 -0.103353,-0.18087 -0.02411,-0.0689 -0.03617,-0.14125 -0.03617,-0.21704 v -0.62529 c 0,-0.43753 0.08957,-0.83888 0.268717,-1.20406 0.179145,-0.36518 0.422025,-0.68385 0.728638,-0.95601 0.310059,-0.27561 0.670071,-0.49954 1.080037,-0.67179 0.413411,-0.1757 0.852661,-0.28939 1.317749,-0.34107 0.299723,-0.031 0.613227,-0.0603 0.940511,-0.0879 0.279053,-0.0241 0.590834,-0.0448 0.935344,-0.062 0.347955,-0.0207 0.697632,-0.031 1.049031,-0.031 0.3514,0.003 0.678684,0.0154 0.981852,0.0362 0.303169,0.0172 0.568441,0.0379 0.795817,0.062 0.265273,0.0275 0.508152,0.0603 0.728638,0.0982 0.447863,0.062 0.869887,0.18086 1.266073,0.35657 0.396186,0.1757 0.740695,0.39963 1.033528,0.67179 0.292833,0.27217 0.523655,0.58912 0.692464,0.95085 0.172255,0.36173 0.258383,0.75964 0.258383,1.19373 v 0.63045 c 0,0.0724 -0.01378,0.14297 -0.04134,0.21187 -0.02756,0.0655 -0.06546,0.12231 -0.113688,0.17053 -0.04823,0.0483 -0.105077,0.0879 -0.170532,0.11886 -0.06201,0.0275 -0.129193,0.0413 -0.201538,0.0413 h -1.979207 c -0.07235,0 -0.139527,-0.0138 -0.201538,-0.0413 -0.06201,-0.031 -0.117135,-0.0706 -0.165365,-0.11886 -0.04479,-0.0517 -0.08096,-0.11023 -0.10852,-0.1757 -0.02411,-0.0655 -0.03617,-0.13609 -0.03617,-0.21187 v -1.34875 c 0,-0.0861 -0.0155,-0.16709 -0.04651,-0.24288 -0.02756,-0.0758 -0.06718,-0.14125 -0.118856,-0.19637 -0.05167,-0.0586 -0.113685,-0.10511 -0.186035,-0.13953 -0.0689,-0.0345 -0.144694,-0.0517 -0.227376,-0.0517 h -4.795573 c -0.08268,0 -0.163642,0.0172 -0.242879,0.0517 -0.07924,0.0345 -0.148139,0.081 -0.206706,0.13953 -0.05857,0.0551 -0.106798,0.12231 -0.144694,0.20153 -0.03445,0.0792 -0.05168,0.16192 -0.05168,0.24805 v 1.32292 c 0,0.0758 -0.01378,0.14814 -0.04134,0.21704 -0.02756,0.0689 -0.06718,0.12919 -0.118856,0.18087 -0.04823,0.0517 -0.105077,0.093 -0.170532,0.12402 -0.06201,0.0275 -0.129193,0.0413 -0.201538,0.0413 z"
         style="fill:#ffffff;stroke-width:0.26458332"
         id="path3705"
         inkscape:connector-curvature="0"
         sodipodi:nodetypes="scccsscccccccccccccsscccsscccsscccsssccsssccss" />
    </g>
  </g>
</svg>
